<?xml version="1.0" encoding="UTF-8"?>
<svg xmlns="http://www.w3.org/2000/svg" version="1.1" viewBox="0 0 401.04 247.97">
  <!-- Generator: Adobe Illustrator 28.7.5, SVG Export Plug-In . SVG Version: 1.2.0 Build 176)  -->
  <g>
    <g id="Layer_1">
      <g>
        <g>
          <path d="M56.53,196.31l2.04,4.67-16.49-2.81.43,2.45-12.8-3.3.88,2.94-15.19-3.88.89,2.79-13.12-3.05-2.71-8.67,1.93.24-2.39-6.6,6.37,1.87-1.49-3.81,8.05,2.36-.55-2.61h.07s-11.28-11.01-11.28-11.01l1.78-7.47,1.92,1.54,1.6-6.55,3.02,3.2,1.16-4.79,8.65,9.4,1.03-2.49,10.63,10.36,6.36-.97-1.26-1.6,1.77-.22-.84-.83,6.15-1.64-.97-.99,10.94-2.87,5.89,4.64-3.14.78,4.8,5.88-4.42,1.13,1.76,2.25-13.08,3.77,1.1,2.24-3.71,1.29,6.11,1.03-.91-2.65,10.79,1.97,3.1,6.69-2.8-.2,2.64,6.34-4.69-.79ZM53.2,192.71l2.74.12-2.18-4.69-8.52-1.55.99,2.59-16.71-2.76,13.77-4.63-1.85-2.69,13.56-3.5-4.72-5.87,2.62-.62-3.84-3.01-8.68,2.21,2.65,2.64-8.86,1.31,2.08,2.58-8.77,1.11-10.54-10.5-1.12,2.62-8.45-9.23-1.47,6.13-1.91-1.61-.85,4.03,10.18,9.95.55-2.69,11.24,11.89-15.19-3.3.68,2.77-7.78-2.25,2.18,5.92-2.07-.25,1.61,5.27,9.25,2.07-.88-2.86,15.19,3.96-.88-2.94,13.22,3.42-.38-2.22,15.78,2.65-2.6-6.05ZM14.85,178.24l-.28,1.13,1.7.35-1.42-1.48Z"/>
          <path d="M62.11,154.89l-.72.65.74,2.45c-1.5.27-2.93.17-4.33.01.29,1.04.47,2.35.28,2.66-3.42.44-8.83-.35-13.01-1.91.07.8.01,1.55-.07,2.37l-2.64-.95c-2.88-1.13-5.82-2.5-9.98-4.74l.64,2.72c-5.47-2.21-11.38-5.29-17.69-9.14l-1.92-8.94,2.47,1.2-.76-7.56,5.67,3.68-.42-4.26,10.77,7.06-.11-3.29c4.11,2.53,8.35,5.34,12.82,7.17-.24-1.17-.21-2.25-.03-3.1,2.03.95,3.23,1.42,5.18,2.18,1.61.63,2.08.81,2.58.93-.85-2.57-8.63-6.61-11.27-7.96l-.11,3.05c-3.39-2.02-6.95-3.79-10.24-5.85l.24,2.95-13.79-8.24-1.21-9.59,2.17,1.39-.65-7.05,5.69,3.84-.46-4.36c2.16,1.39,4.25,2.97,6.51,4.32l.05-3.3c4.74,2.7,9.7,5.25,14.17,8.46l.2-2.7c3.41,1.56,9.12,5.34,12.18,8,.36-.32.53-.95.68-1.36.13-.33.26-.67.53-.95,7.1,5.17,10.25,10.18,10.64,16.91l2.45-.74c.5,2.67.35,5.24-.56,7.59-1.18,3.02-3.55,5.34-6.69,6.43ZM64.15,144.1l-2.71.8c-.37-7.18-3.15-12.13-9.33-16.7-.45.75-1.03,1.45-1.52,2.11-2.97-2.7-6.87-5.38-11.26-7.79l-.24,3c-4.47-3.21-9.26-5.78-13.98-8.55l-.09,3.21c-2.02-1.17-4.11-2.53-6.25-3.99l.67,6.99-2.03-1.33.63,5.12,10.23,6.08-.05-3.04c2.8,1.94,5.63,3.59,10.34,6.2l.11-3.05c3.32,1.99,16.43,7.8,14.52,12.7-.81,2.08-4.14,2.09-9.24.11l-3.64-1.57c.17,1.15.29,2.43.65,3.88-3.07-1.43-5.71-3-13.34-7.6l-.05,3.3-10.39-6.84.58,7.03-1.93-.99,1.02,4.72c4.73,2.93,9.22,5.3,13.7,7.28l-.79-2.93c6.42,3.35,9.6,4.91,13.02,6.24l.47.18c-.18-.92-.54-1.99-.81-2.87l1.72.75c4.35,1.93,9.25,2.84,12.62,2.53-.5-.89-.94-1.76-1.47-2.58,4.03-1.21,6.95-3.55,8.21-6.77.63-1.61.84-3.54.65-5.62Z"/>
          <path d="M76.12,128.81l.04,5.52-10.79-8.68-.35,2.85-9.9-8.31-.44,2.34-9.68-9.12-.61,2.84-10.71-9.42.31-9.6,2.91,1.37.57-5.88,5.18,1.67.21-1.53,11.78,2.84-.16-1.26,2.91.75-5.83-4.96-.47,3.38-10.3-10.36,1.43-9.07,2.05,1.46,1.36-6.99,4.33,5.21.8-4.47,6.65,8.03,1-2.39,9.02,10.16,1.01-2.29,10.21,11.1.52-3.08,9.48,9.52.28,6.92-3.06-1.3.04,5.52-4.1-1.07v2.84s-10.69-2.86-10.69-2.86l.84,2.54-4.52-1.1,5.59,3.82.08-2.96,9.01,6.96.5,6.11-2.49-1.6.07,7.83-4.11-3.29ZM74.36,123.22l2.27,1.53-.24-3.62-7.06-5.48-.09,2.85-17.54-11.99,17.73,4.17-.91-2.69,11.61,3.07-.02-5.67,2.98,1.16-.18-4.82-7.78-7.94-.6,3.2-10.52-11.41-1.11,2.3-8.91-10.08-1.11,2.3-6.27-7.57-1.1,6.12-1.99-1.42-.85,5.41,7.22,7.37.42-3.06,15.56,13.15-14.93-3.5.18,2.34-12.16-3.91-.58,6.14-2.8-1.29-.1,6.21,7.87,6.95.65-2.9,9.54,8.94.33-2.07,9.79,8.23.31-2.79,10.46,8.27-.06-7.47Z"/>
          <path d="M100.36,95.92l.18,2.21c-1.94-.61-3.18-1.07-4.22-1.51l.19,2.11c-6.58-2.05-9.17-3.53-12.57-7.06l-1.32,2.45-1.5-1.65c-3.13-3.67-4.73-6.75-5.77-11.08l-2.46,1.44c-2.26-4.42-3.35-10.02-2.78-14.01l-2.37.32c-.47-4.43.52-9.15,2.98-13.25l-2.14-.73c1.42-4.43,5.5-10.19,9.93-13.98.71-.61,1.48-1.26,2.23-1.71l1.81,3.56,1.04-.89c1.04-.89,1.26-1.08,1.63-1.3l3.06,5.91,1.43-1.98,4.24,7.84c-1.05.33-1.95.82-2.83,1.57-1.04.89-1.84,1.95-2.4,3.18l1.87,1.53-.44.37c-2.85,2.43-4.11,4.83-4.33,8.34l1.79-.68,4.16-7.44,1.42,2.67,4.49-7.72c.94,1.09,2,2.56,3.28,4.39l1.6-2.79c3.5,4.21,6.29,8.92,7.16,12.16l1.1-1.7c2.9,4.72,4.15,8.96,3.61,11.88l2.57-.21c.07,3.63-2.26,8.66-5.5,11.52l1.9,1.78c-3.93,3.16-8.28,4.61-13.06,4.44ZM111.1,78.89l-2.68.3c.58-3.43-.27-6.97-2.5-11.13l-1.39,2.14c-1.29-4.39-3.65-8.82-6.66-12.78l-4.78,8.25-1.33-2.56-3.26,5.72,1.62,3.45,1-1.71,3.37,5.27,3.07-4.61c1.62,2.12,2.24,4.06,2.07,6.85l2.76,1.24-.49.42c-2.57,2.2-4.63,3.01-7.28,3l.18,2.31c-2.62-1.08-4.99-2.74-6.82-4.88-.65-.77-1.07-1.36-1.67-2.17l-1.43,1.98c-2.54-5.31-3.08-7.6-2.57-12.1l-2.41.83c.39-4.97,1.52-7.64,4.27-10.18l-1.53-1.35c.74-1.58,1.82-3.07,3.19-4.24.66-.56,1.31-1.02,1.88-1.23l-2.95-5.34-1.48,1.93-3.13-6.32-.71.61c-3.45,2.95-7.15,7.81-8.66,11.47l2.69.82c-3,4.36-4.4,8.49-4.18,12.29l3.09-.37c-1.06,4.41-.54,9.46,1.28,13.58l2.79-1.72c1.19,5.71,2.67,8.89,5.86,12.51l1.32-2.45c4.44,4.64,6.37,6.02,10.94,7.6l-.21-2.57c4.36,1.11,8.72.12,12.68-2.78l-1.86-1.73c3.35-2.95,5.6-6.86,5.92-10.36ZM97.85,75.91l-.63-1.07-2.83,4.22-3.21-5.31-1.28,2.04-2.02-4.14c.14,2.16.66,3.98,2.03,6.7l1.36-1.73c.77,1.23,1.49,2.52,2.48,3.57l.8.83c1.89,0,3.46-.49,4.64-1.22l-1.38-.62c.14-1.16.07-2.24.05-3.26Z"/>
          <path d="M143.28,72.9l.28-.66-5.79-.69.87-2.45-6.06-.97c2.38-4.3,3.9-8.41,4.3-11.45l2.45.49c.05-.25,0-.39-.22-.92-.4-1-1.37-1.85-2.64-2.5-1.42-.05-2.37.1-3.03.37l.32-1.14c-2.1-.39-4.21-.24-5.81.41l.9-3.93c-4.55-.1-8.59-3.2-10.59-8.14-.35-.87-.63-1.76-1.04-3.54l2.53.3c-1.33-4.82-1.13-8.94.49-12.62l1.93,1.32c1.19-5.14,3.55-9.28,8.44-14.67l3.64,4.59,1.89-2.63,3.26,6.14,1.25-2.68,4.04,7.69c-1.53,1.4-3.1,4.82-3.65,8.08l-2.6-1.82c-1.55,2.88-2.11,5.36-1.57,7.08,2.18.21,3.61.09,5.63,1.06l-.57,1.47c1.38.14,2.96.2,4.13.81l-.25.72c5.72,2.43,9.34,5.23,10.66,8.51.3.73.38.93.35,1.25l-1.92.62.35.87c1.56,3.87,1.84,8.58.67,11.84l-2.24-.73c-.03,2.81-1.61,6.4-3.7,8.72l-6.69-.79ZM148.21,61.67l2.58.82c.79-3.42.13-7.74-1.82-12l2.12-.7-.14-.33c-1.46-3.6-7.24-6.39-12.01-5.71l1.35-3.19c-11.95-2.86-7.93-1.38-8.69-3.25-.81-2-.14-5.15,2.09-9.23l2.27,1.57c.75-2.94,1.76-5.06,2.97-6.48l-2.75-5.26-1.17,2.49-4.52-5.63c-3.94,4.47-5.96,8.7-7.19,14.87l-2.27-1.57c-.85,2.9-.54,6.74,1.11,11.97l-2.76-.28c.01.23.1.43.45,1.3,1.89,4.67,6.15,7.14,11.52,6.6l-1,3.28c4.52-.35,8.91,1.68,10.15,4.75.46,1.14.56,2.34.2,3.57l-2.45-.49c-.62,2.5-1.57,5.14-3.03,8.06l6.15,1.01-1.09,2.3,4.83.61c1.94-2.49,3.08-5.83,3.08-9.09Z"/>
          <path d="M169.48,60.47l-.92-.29-1.74,1.88c-.99-1.15-1.63-2.44-2.2-3.73-.75.78-1.79,1.6-2.15,1.58-2.11-2.73-4.16-7.79-4.94-12.19-.65.47-1.33.8-2.08,1.13l-.51-2.76c-.49-3.06-.79-6.29-.95-11l-2.03,1.93c-.86-5.84-1.19-12.5-1.06-19.88l6.74-6.18.22,2.74,6.14-4.48-.31,6.76,3.46-2.52-.65,12.86,2.78-1.76c-.1,4.83-.39,9.91.3,14.68.89-.8,1.83-1.31,2.66-1.59.21,2.23.41,3.51.74,5.57.27,1.71.35,2.2.5,2.69,1.79-2.04,1.34-10.79,1.16-13.75l-2.69,1.45c.03-3.94-.24-7.91-.13-11.79l-2.43,1.7.13-16.06,7.66-5.89-.1,2.57,5.76-4.13-.44,6.85,3.52-2.6c-.1,2.57-.41,5.17-.43,7.8l2.88-1.63c.07,5.46.37,11.02-.14,16.5l2.44-1.19c.38,3.73.01,10.57-.74,14.55.46.15,1.09-.03,1.52-.1.36-.06.71-.11,1.09-.03-.87,8.74-3.6,13.99-9.2,17.73l1.88,1.74c-2.05,1.79-4.34,2.95-6.83,3.35-3.2.51-6.4-.36-8.93-2.51ZM179.82,56.77l-2.06-1.93c6-3.95,8.87-8.85,9.69-16.49-.88,0-1.77-.15-2.59-.24.83-3.92,1.17-8.64,1.03-13.65l-2.71,1.31c.51-5.48.3-10.91.3-16.38l-2.82,1.54c0-2.33.1-4.83.28-7.41l-5.69,4.12.12-2.42-4.09,3.13-.07,11.9,2.59-1.58c-.26,3.4-.25,6.67-.12,12.05l2.69-1.45c-.04,3.87,1.58,18.12-3.61,18.95-2.2.35-3.9-2.51-4.76-7.92l-.48-3.93c-.9.73-1.95,1.48-3.02,2.52-.32-3.38-.3-6.44-.19-15.35l-2.88,1.63.64-12.42-5.77,4.06-.13-2.17-3.56,3.27c-.13,5.56.09,10.63.65,15.5l2.13-2.16c.35,7.23.62,10.76,1.2,14.39l.08.5c.7-.62,1.44-1.47,2.06-2.15l.22,1.86c.54,4.73,2.23,9.41,4.2,12.16.52-.88,1.04-1.7,1.49-2.57,3.08,2.86,6.58,4.2,9.99,3.66,1.71-.27,3.48-1.06,5.18-2.28Z"/>
          <path d="M199.02,60.24l-4.54,2,1.9-15.46-2.41.49,2.15-12.7-2.19.43,2.5-11.38-2.63.54c1.06-7.15,1.77-11.36,2.64-15.63,3.25-2.16,7.63-3.96,11.88-4.9v1.95c3.97-1.9,6.42-3.03,10.88-2.81l-.89,2.54c.66-.1,1.16-.07,1.95-.01,3.3.22,6.28,2.08,8.45,5.33l-.61.46c1.1.8,2.12,1.73,2.91,2.94l-2.36,1.86c1.28,1.31,2.44,5.5,2.27,8.16-.06.86-.18,1.65-.44,2.21-.58-.04-1.06-.29-1.63-.47l-.04.65c-.25,3.74-1.42,7.19-2.89,8.61l-1.5-1.33c-1.38,2.22-2.7,3.64-4.19,4.41l.18.59.91-.66,1.72,5.53,1.14-.79,3.76,12.74-3.57,3.73-.8-2-3.94,3.92-1.44-4.35-2.01,1.96-3.07-8-1.37.99-.63,9.41-6.57,3.24.08-2.3-6.09,2.62.52-4.51ZM202.56,56.94l-.07,2.16,4.48-2.22.54-7.97-2.52,1.06,1.62-14.47,5.26,14.06,2.36-1.86,2.72,7.9,3.79-3.86.73,2.07,2.17-2.16-3.24-10.9-2.57,1.7c-.67-2.86-1.2-5.78-2.1-8.51,2.09-1.09,3.18-2.24,5.27-5.42l1.64,1.41c1.13-1.8,1.86-5.14,2.06-9.17l1.83.63c.09-.21.1-.43.14-1,.18-2.73-1.07-6.57-2.69-8.26l2.43-1.86c-1.54-1.83-3.7-2.92-6.22-3.09-1.44-.1-2.96.02-4.5.35l1.14-3.03c-2.9.17-5.86,1.27-10.14,3.72l-.12-2.46c-2.73.83-5.55,2.08-8.56,3.83-.78,4.13-1.42,8.2-2.13,12.34l2.78-.61-2.43,11.46,1.91-.45-2.08,12.78,2.34-.49-1.94,14.88,6.09-2.55ZM207.42,24.36l-2.27.43,1.13-9.31c2.39-1.21,4.45-1.87,5.68-1.78,2.58.17,4.78,2.92,4.78,6.17l-1.83.38-.02.36c-.31,4.6-1.65,6.38-8.47,11.19l1-7.44ZM210.73,51.35l-1.04-2.74-.37,3.37,1.41-.63ZM213.03,20.33c.07-1.08.09-1.36.04-1.73-.75.38-1.57.76-2.6,1.12l-1,7.44c1.76-.39,3.33-3.38,3.56-6.83Z"/>
          <path d="M234.41,64.18l-6.57.27,1.63-3.73-5.07.24,4.52-10.4-2.66.16,5.95-12.32-2.47.29,5.76-12.15-2.26.34,6.44-14.88,13.91-1.68-1.12,2.68,14.04-.52-2,5.05,3.39-.11-2.38,5.91,2.7-.3-2.89,6.67-7.52.46.9-2.44-6.17.98-1.15,2.82,7.55-.82-2.23,5.36,3.61-.35-2.78,6.55,2.53-.5-2.18,6.27-7.46,1.59.83-2.46-5.59,1.29-2.85,7.58,2.96-.45-3.84,10.37-8.5,1.31,1-3.08ZM238.77,60.83l3-8.13-2.96.45,3.67-9.74,7.98-1.83-.83,2.46,5.01-1.08,1.41-4.02-2.51.43,2.75-6.71-11.04,1.28,4.14-10.36,8.59-1.36-1.03,2.63,5.32-.32,1.82-4.43-2.52.2,2.33-6-14.2.55,1.13-2.45-9.97,1.2-4.87,11.13,2.42-.38-5.79,12.29,2.47-.29-6.08,12.51,2.5-.13-4.45,10.42,6.37-.33-.9,2.96,6.24-.96Z"/>
          <path d="M269.5,77.25l-5.21-.33,8.5-10.95-2.4-.55,9.08-11.43-2.18-.23,8.29-10.23h-3.02s9.94-11.56,9.94-11.56c3.67-.86,9.26-.19,13.27,1.58l-.77,1.3c2.56.31,5.3,1.25,9.6,3.22l-1.55,1.57.58.3c3.14,1.64,4.76,5.46,3.97,9.42,1.05,2.33.85,4.61-.62,6.83-.32.48-.58.74-.99,1.24l2.36,1.12c-2.58,3.39-5.8,5.92-10.48,8.19.38.86.89,1.53,1.11,2.37-2.83,1.42-8.83,2.03-11.47,1.33l.33,2.37c-3.43.5-8.11-.25-11.91-1.81-1.49,1.61-2.96,3.31-4.46,5.08l3.04.62-5.47,7.78-7.11-.98,1.25-2.02-6.63-.4,2.95-3.83ZM274.04,75.84l-1.33,2.14,4.82.67,4.32-6.04-3.14-.6c2.24-2.75,3.83-4.63,5.99-7,3.7,1.58,7.66,2.37,11,2.15l-.38-2.83c3.08.82,7.61.62,11.26-.6-.34-.66-.77-1.45-1.03-2.23,4.8-2.18,7.96-4.5,10.24-7.31l-2.46-1.1c1.25-1.5.91-1.12,1.07-1.36,2.57-3.91,1.69-7.94-2.34-10.59-.72-.48-1.24-.73-1.88-1.07l1.47-1.45c-3.2-1.42-6.2-2.1-9.46-2.26l1.11-1.94c-3.08-1.08-7.2-1.38-9.89-.82l-7.18,8.29,2.88.08-8.55,10.49,2.08.25-9.34,11.7,2.4.54-8.19,10.47,6.53.42ZM295.1,50.4l-2.26-.37,5.13-6.62c2.17-.29,4.79.31,6.42,1.38,1.02.67,1.81,1.71,2.25,2.86l-1.75.83c.55,1.39.5,2.91-.34,4.17-.91,1.38-2.46,2.43-4.2,2.84l.49,1.62c-3.65,1.22-6.34,1-10.01-.9l4.26-5.82ZM298.75,55.99l-.51-1.97c2.1-.17,3.75-.98,4.54-2.18.44-.66.61-1.58.43-2.48-1.2-.27-2.48-.42-3.76-.32l-3.75,5.03,2.2.33-1.39,1.84c.88-.03,1.6-.07,2.24-.25Z"/>
          <path d="M295.15,97.91l-6.37-2.79,3.66-2.65-4.84-2.39,7.83-5.4-1.53-1.22,11.86-7.29-1.94-1.42,11.19-6.73-1.99-1.78,15.21-8.82,10.29,2.43-1.93,2.14,9.62,1.77-2.03,2.45,6.42,2.54-4.58,3.77,3.31,1.37-13.79,11.57,2.8,1.17-9.77,7.95,2.19,1.58-10.43,7.9,1.99,1.07-6.97,6.37-6.06-2.08,1.53-1.83-6.57-2.18,3.2-3.11-4.69-1.52,5.7-5.3-1.83-.61-3.1,2.4,1.27,1.07-4.88,3.67-6.62-2.03,1.83-2.04ZM299.68,95.92l3.36-2.65-1.27-1.07,5.95-4.33,6.93,2.64-4.83,3.62,1.99.66-5.7,5.2,6.52,2.13-1.63,1.94,4.12,1.37,5.39-5-2.14-1.12,10.58-8.05-2.19-1.58,9.41-7.7-2.75-1.12,13.84-11.62-5.91-2.34,1.68-1.99-9.62-1.77,1.88-2.19-6.77-1.78-12.47,7.4,1.94,1.73-11.04,6.58,1.94,1.42-11.96,7.29,1.27,1.07-7.12,5.1,6.01,2.64-1.98,2.09,4.58,1.42ZM319.21,77.77l-1.83-1.02,16.64-8.42-7.42,8.56,1.83.51-8.8,7.9-6.62-3.05,6.21-4.49ZM320.54,82.15l2.34-2.14-3.21,1.68.87.46Z"/>
          <path d="M314.19,117.01l-5.11-2.07,12.15-6.65-2.49-1.41,11.47-5.97-2-1.3,12.13-5.45-2.39-1.65,12.8-6.29,8.75,3.96-2.38,2.17,5.21,2.77-3.52,4.15,1.33.78-7.13,9.79,1.23.34-1.81,2.4,6.82-3.49-2.94-1.73,13.51-5.55,7.83,4.79-2.14,1.33,5.94,3.94-6.47,2,3.82,2.45-9.96,3.08,1.82,1.83-12.84,4.45,1.72,1.81-14.16,5.19,2.65,1.66-12.42,5.12-6.5-2.39,2.37-2.33-5.11-2.07,2.56-3.38-2.62-1.08,6.74-8.79-2.67-.2,2.75-3.75-5.67,3.71,2.7,1.2-9.88,5.66-5.84-1.87,2.43-1.69-7.26-2.94,4.61-2.54ZM320.03,117.52l-2.28,1.51,3.44,1.16,7.77-4.42-2.6-1.18,17.79-11.61-10.63,14.79,2.83.18-7.28,9.55,5.25,2.16-2.21,2.31,4.53,1.67,10.31-4.15-2.72-1.78,14.57-5.36-1.7-1.91,12.72-4.37-1.7-1.91,9.4-2.89-5.23-3.35,2.08-1.3-4.67-2.86-9.57,3.85,2.67,1.56-18.1,9.34,8.95-12.46-2.24-.73,8.27-9.74-5.45-2.88,2.26-2.09-5.7-2.47-9.43,4.61,2.43,1.71-11.91,5.4,1.79,1.09-11.35,5.89,2.46,1.35-11.64,6.5,6.93,2.81Z"/>
          <path d="M331.14,142.58l12.2-2.52-1.76-2.38,14.13-2.17-1.65-2.04,12.51-1.79-2.24-2,13.34-2.06c4.97,2.25,9.69,7,11.97,12.16h-3.03c.72,1.05,1.28,2.31,1.77,3.82,1.18,3.63,1.35,7.89.68,11.89l-2.4-1.57c.12,2,.02,3.55-.26,4.78l-1.93-1.27c-.69,1.13-1.29,1.86-1.88,2.35-1.07,2.54-3,4.53-6.91,7.17l-1.94-2.47c-3.39,2.84-7.51,5.32-11.41,6.58-1.23.4-2.58.69-3.9.81l-.52-3.01c-3.9,1.27-9.21,1.02-13.88-.79l1.38-2.27c-4.38-1.38-7.4-3.2-11.08-6.85l2.81-1.14c-3.25-3.94-5.51-5.33-7.27-10.51l3.06-.61c-.74-1.35-1.35-2.74-1.79-4.11ZM341.07,153.82l-2.65,1.16c3.21,2.89,6.18,4.58,10.79,5.96l-1.47,2.22c4.38,1.38,8.94,1.41,13.12.06l.59,3.21c.93-.15,1.85-.37,2.67-.64,3.9-1.27,8.16-3.79,11.99-7.15l1.98,2.61c4.37-3.09,5.85-5.31,7.09-10.33l2.67,1.71c.2-2.41-.12-5.03-1.01-7.77-.85-2.6-2.06-4.93-3.59-6.86l3.57.05c-2.07-3.57-5.75-6.99-9.32-8.63l-9.39,1.39,2.26,2.07-13.11,1.83,1.65,2.04-14.27,2.21,1.69,2.18-12.91,2.68c1.61,4.02,4.93,6.8,7.64,10.01ZM358.2,146.89l-2.01-2,10.57-1.01-1.15-1.9,5.2-.55c1.74,1.17,2.94,2.53,3.43,4.03.8,2.47-.33,5.03-2.99,7.11l-1.9-1.43c-1.27,1.7-2.94,2.85-5.2,3.58-.89.29.43-.07-4.56,1.1l-.28-2.26c-4.37-.4-7.66-1.9-10.41-5.02l9.3-1.66ZM360.89,151.92l.21,1.82c3.99-.99,2.1-.53,2.44-.64,2.33-.76,3.89-2.02,5.38-4.4l2.31,1.75-.02-.07c-.47-1.44-1.46-2.63-2.84-3.62l-3.19.43,1.1,1.76-10,1.13,1.56,1.54c.84.26,1.86.38,3.05.3Z"/>
          <path d="M339.67,182.74l-3.14-6.2,4.51.28-2.22-4.92,9.48.8-.41-1.91,13.79,1.89-.59-2.33,12.92,1.91-.41-2.64,17.35,2.84,6.4,8.41-2.85.43,6.31,7.48-3.12.6,3.35,6.04h-5.93s1.69,3.17,1.69,3.17l-18,.19,1.42,2.68-12.59-.06.69,2.61-13.07-.52.86,2.09-9.43.5-3.36-5.46,2.34-.45-3.69-5.86,4.45-.37-2.65-4.15,7.77-.48-1.03-1.63-3.92-.12.31,1.63-6.1-.27-3.83-5.77,2.71-.41ZM344.43,184.07l4.28.08-.31-1.63,7.35.43,3.67,6.44-6.03-.27,1.12,1.77-7.7.4,3.68,5.79-2.49.46,2.32,3.68,7.34-.44-.94-2.22,13.29.5-.69-2.61,12.16.03-1.42-2.61,18.07-.19-3.08-5.56,2.56-.47-6.31-7.48,2.84-.5-4.11-5.67-14.33-2.2.4,2.56-12.71-1.93.59,2.33-13.87-1.96.31,1.63-8.74-.58,2.97,5.86-2.86.36,2.64,4.01ZM371.04,182.46l-.77-1.95,18.2,4.06-11.17,1.9,1.09,1.56-11.81.52-3.18-6.56,7.64.48ZM369.29,186.68l3.17-.17-3.55-.73.38.9Z"/>
        </g>
        <g id="trace_jav.">
          <path d="M316.69,236.8c-1.48-2.5-2.88-5.04-4.28-7.5.52-.38.99-.72,1.58-1.15-3.62-4.52-7.11-8.87-10.6-13.22,1.14-.61,1.29-1.24.43-2.15-1.71-1.79-3.5-3.51-5.22-5.29-1.15-1.2-2.23-2.47-3.34-3.69.26-.06.7-.16,1.33-.3-2.96-3.14-5.8-6.16-8.75-9.28.78-.22,1.3-.37,1.95-.55-.23-.27-.36-.45-.52-.6-2.51-2.35-5.03-4.69-7.52-7.06-.37-.34-.58-.83-.94-1.37.88-.35,1.52-.6,2.43-.95-.52-.42-.91-.65-1.2-.97-2.74-3.01-5.47-6.04-8.21-9.05-.47-.53-.95-1.06-1.46-1.55-.82-.77-1.47-1.55-.91-2.79.19-.41.1-.94.13-1.41.06-1.41.12-2.82.18-4.26.87.05,1.52.09,2.49.15-1.18-1.6-2.21-2.9-3.14-4.27-2.48-3.63-4.91-7.29-7.37-10.94-1.88-2.78-3.87-5.49-5.62-8.35-3.25-5.32-6.72-10.49-10.97-15.08l-1.66,1.48c.65.72,1.27,1.46,1.88,2.21,1.96,2.46,3.5,5.24,5.27,7.85,5.14,7.61,10.3,15.21,15.47,22.8.58.85,1.27,1.63,1.96,2.51-.31.12-.54.21-.6.23-.37,2.43-.67,4.63-1.04,6.81-1.13,6.63-4.9,12.07-8.28,17.62-2.3,3.78-5.46,6.96-8.9,9.82-4.71,3.92-9.93,6.99-15.46,9.55-5.55,2.57-11.3,4.12-17.56,4.09-5.22-.03-9.25-.95-13.76-1.11-.6-.02-.99.17-1.25.42-.4.38-.45.91-.45.97,4.41,1.44,8.81,2.87,13.33,4.35-.5.78-.91,1.43-1.2,1.89,4.06,1.43,8.06,2.85,12.08,4.25.2.07.47.05.7-.01,2.91-.67,5.82-1.35,8.74-2.03.35-.08.73-.27,1.05-.2,2.03.45,4.03.37,6.01-.27.23-.07.48-.06.71-.1,1.7-.26,3.39-.52,5.09-.79.9-.14,1.81-.38,2.71-.4,4.23-.1,8.45-.78,12.69-.16.31.04.64-.06.95-.06,1.32.04,2.64.05,3.95.13,3.02.18,5.75,1.39,8.46,2.54,2.03.86,3.91,2.1,5.79,3.28.89.55,1.62,1.36,2.53,2.14.27-.81.51-1.51.63-1.88,3.08,2.71,6.18,5.44,9.22,8.12.08-.19.29-.68.53-1.25,3.04,2.73,5.06,6.07,7.21,9.5.41-.84.73-1.48,1.19-2.42,2,3.77,3.84,7.25,5.79,10.92,1.01-2.27,1.91-4.32,2.9-6.54.58.79,1,1.38,1.56,2.15.54-1.48.92-2.78,1.49-3.99.48-1.02.35-1.85-.2-2.79Z"/>
          <path d="M247,124.99c-.65-.71-1.33-1.38-1.96-2.11-.22-.25-.44-.6-.45-.92-.04-1.75-.02-3.5-.02-5.27.39.06.87.13,1.81.26-.92-2.39-1.73-4.49-2.55-6.62.23-.13.58-.34.95-.55-1.43-2.27-3.28-3.92-5.64-5.01.24-.5.44-.91.65-1.35-2.86-1.59-5.85-2.23-9.06-1.89-.06-.64-.11-1.17-.16-1.73-2.48-.17-4.81-.15-6.72,1.74-.28-.61-.49-1.08-.85-1.86-.57.68-1.04,1.25-1.54,1.85-.75-.43-1.48-.83-2.19-1.27-2.26-1.43-4.42-3.04-6.78-4.26-3.03-1.58-6.16-3.03-9.37-4.23-3.11-1.15-6.34-2.36-9.7-.65-.08.04-.22-.04-.35-.07.03-.4.07-.78.12-1.27-4.97.09-8.59,2.57-11.68,6.01-5.3-2.14-10.64-3.72-16.18-4.58-3.68-.57-7.27-2.04-11.09-.87-.33.1-.72-.04-1.07-.01-1.27.11-2.55.17-3.8.38-2.88.47-5.67,1.32-8.28,2.63-2.75,1.37-5.5,2.75-8.13,4.32-1.17.7-2.04,1.91-3.04,2.88.07.1.15.19.22.29.51-.03,1.01-.07,1.59-.11-2.99,6.61-4.15,8.53-3.72,13.8.17,2.16.23,4.35,1.49,6.22,4.76,7.09,11.25,12.15,18.82,15.92,1.22.61,1.32.83.76,2.06-.49,1.06-.88,2.16-1.32,3.24.1.04.2.09.3.13,3.95-5.56,7.89-11.12,11.82-16.66-.32-.02-.83-.04-1.33-.07-.02-.1-.03-.21-.04-.31,1.41-.37,2.81-.94,4.24-1.06,2.22-.18,4.47-.04,6.7-.03,2.12,0,4.29-.29,6.34.11,3.21.62,6.37.01,9.54.08,1.68.04,3.37.16,5.02-.06,4.34-.57,8.66-1.34,13-1.98,6.21-.91,12.33-2.19,18.41-3.76,1.02-.26,2.06-.43,3.13-.65.1-.21.25-.53.43-.94,1.86,1,3.66,1.97,5.5,2.97.08-.43.13-.75.2-1.17,2.28,1.22,4.44,2.38,6.63,3.55.11-.32.19-.53.28-.8.23.1.4.17.58.24,2.8,1.12,5.03,2.98,6.99,5.1l1.66-1.48c-.05-.06-.11-.12-.16-.18ZM197.09,103.75c-4.37-2.23-8.53-4.36-12.81-6.56,1.8-2.31,3.29-4.58,6.48-4.58-.04.51-.08.92-.12,1.4,1.71-.48,3.38-.84,4.96-1.44,1.41-.53,2.54-.03,3.83.56-1.11,3.44-2.65,6.72-2.34,10.62ZM219.71,105.91c-.2.44-.21.96-.32,1.54-.44-.34-.78-.61-1.29-1.01-.48,2.54-.13,4.84.66,7.54-6.55-3.1-12.78-6.06-19.01-9-.33-3.84.73-7.21,2.74-10.3.17-.26.88-.43,1.2-.3,3.81,1.46,7.47,3.22,10.73,5.73,1.46,1.12,2.92,2.23,4.41,3.3.9.65,1.4,1.35.88,2.5Z"/>
          <path d="M162.42,172.25c4.41-.82,8.62.04,12.81,1.11,2.19.56,4.38.23,6.52-.27,1.62-.38,3.17-1.04,4.79-1.45,2.5-.64,5.02-1.28,7.56-1.7,1.14-.19,2.4.03,3.55.28.51.11,1.17.71,1.27,1.19.09.45-.35,1.22-.78,1.51-3.65,2.47-7.37,4.83-11.02,7.3-1.11.75-2.72,2.22-3.64,3.2-1.43,1.51-3.01,2.56-5.22,2.46-.23-.01-.47.08-.93.16.27,2.96.54,5.92.82,8.99,2.42.66,4.92.7,7.43.54,2.82-.18,5.48-.94,8.05-2.17,3.55-1.69,5.61-4.64,7.6-8.31.89-1.63,2.11-3.22,2.94-4.73.25-.46.32-1,.46-1.62-1.11.03-2.1,1.18-3.04-.32,1.25-.47,2.4-.9,3.46-1.29.11-.04.38.02.5.23.65,1.12.59,3.14,2.11,5.3.51.72,1.31,1.47,1.35,1.51.59.55.95.76,1.55,1.4.36.39,1,1.18.94,1.33-.08.18-1.72-.48-2.44-1.02-.9-.67-1.69-1.24-2.2-1.61-.05-.04-.11-.02-.13.04-1.03,2.1-2.09,4.1-2.98,6.16-1.06,2.45-1.74,5.09-3.01,7.41-2.34,4.27-6.14,6.26-11.04,5.88-4.53-.35-9.01.18-13.51.54-.92.07-1.86.27-2.74.13-.53-.09-.98-.73-1.61-1.24,1.66-.85,3.22-1.37,4.91-1.37,4.35,0,8.71.07,13.06.06,1.44,0,2.89-.13,4.41-.22.13,0,.23-.12.22-.24-.08-.99-.18-2.02-.18-2.28,0-.13.22-.26.32-.08.17.55.34,1.1.58,1.88.04.11.17.16.27.09.72-.52,1.51-.76,1.97-1.73.39-.81-.34-2.82-.1-2.93.11-.05.43.21,1.38,1.76.67-1.55,1.4-2.99,1.91-4.5,1.23-3.58,2.17-7.27,4.36-10.47.32-.46.21-1.5.25-1.87,0-.09-.36-.22-.41-.12-.37.66-1.48,2.66-2.19,4-.69,1.31-1.36,2.63-1.99,3.96-.82,1.75-2.26,2.95-3.6,4.26-.61.6-1.07,1.38-1.51,2.13-.42.72-.62,1.6-1.13,2.24-.43.54-1.12.99-1.78,1.2-.72.23-1.55.18-2.37.23-.02.15-.05.37-.07.65-.03.4-.01.64-.07.65-.05,0-.11-.15-.24-.4-.14-.27-.27-.48-.37-.63-.87.12-1.76.25-2.65.38-.1.45-.19.85-.27,1.25-.04.11-.03.13-.11.15-.07.01-.13,0-.17-.11-.15-.4-.29-.8-.55-1.52h-11.68c0-.15,0-.31,0-.46,3.89,0,11.49.04,11.75,0-.02-.33-.01-1.05,0-1.1.03-.03.13-.12.26-.12.13.03.39.51.72,1.2,1.59-.19,3.28-.4,5.05-.61-.21-1-.39-1.84-.59-2.78-1.49.29-2.95.72-4.43.82-2.22.16-4.47.27-6.67.06-2.47-.23-3.54-1.59-3.69-4.09-.11-1.83-.11-3.68-.32-5.5-.05-.44-.73-1.12-1.16-1.15-2.03-.12-3.37-1.34-4.56-2.73-.98-1.15-1.71-2.51-2.62-3.72-1.55-2.08-3.55-3.65-5.85-5.08-1.34,3.86-2.48,7.62-1.81,11.65.1.62.4,1.19.8,1.67,1.84,2.22,3.69,4.45,5.69,6.52.59.61,1.69.9,2.6.98,1.82.16,3.67.07,5.5.09.27,0,.53.03.81.17-2.21,1.11-4.58,1.19-7.15,1.26.39.34,1.95,2.33,2.39,2.41.63.11,1.09-2.47,1.26-2.46.1,0-.04,2.23-.24,2.72-.29.71-.98.89-1.58.42-.87-.69-1.68-1.47-2.46-2.26-1.58-1.62-3.13-3.27-4.92-5.16.82,2.25,1.18,4.26,3.29,5.45,1.68.95,3.04,2.59,4.55,3.83.27.22.63.61.59.78-.16.05-.82.02-1.05-.18-2.36-2.03-4.82-3.98-6.94-6.24-.83-.89-.82-2.53-1.28-3.8-.26-.72-.62-1.44-1.08-2.05-.83-1.12-1.78-2.15-2.65-3.24-.66-.82-.8-1.74-.68-2.81.2-1.89.24-3.79.36-5.83-1.12.95-2.16,1.74-3.09,2.64-3.08,3-6.87,4.92-10.57,6.97-1.37.76-3.06.78-4.46-.16-1.72-1.15-3.01-2.71-4.09-4.51-.88-1.47-1.1-3.23-.73-4.9,1.64-7.29,3.12-14.61,4.73-21.91.56-2.53,1.25-5.04,2.05-7.51.22-.67.98-1.23,1.6-1.7,3.38-2.58,7.4-3.6,11.42-4.63,1.58-.4,3.12-1.01,4.71-1.34,1.9-.41,3.85-.61,5.77-.93,2.34-.39,4.68-.82,7.03-1.2,1.29-.21,3.42-.43,4.72-.52,4.51-.32,9.02-.75,13.53-.93,6.1-.25,12.21-.41,18.32-.44,4.63-.02,9.26-.26,13.88.57,1.62.29,3.34-.03,5,.1,2.46.2,4.91.51,7.35.88,1.92.29,3.82.72,5.71,1.17.46.11,1.03.44,1.24.83,1.25,2.31,2.57,4.6,3.58,7.02,1.86,4.45,3.41,9.04,5.33,13.46.87,2.01.47,3.87.02,5.71-1.02,4.18-2.25,8.31-3.48,12.44-.25.82-.69,1.56-1.27,2.18-3.55,3.77-7.61,6.57-12.92,7.31-2.25.31-4.4.04-6.47-.56-4.99-1.46-9.6-3.58-13.28-7.49-5.42-5.76-11.07-11.31-16.45-17.12-2.45-2.64-5.3-4.02-8.79-4.23-2.99-.18-5.98-.31-8.97-.3-1.42,0-2.85.34-4.26.58-.42.07-.89.24-1.2.51-4.03,3.58-7.93,7.29-11.25,11.56-.07.09-.08.21-.15.4ZM229.32,184.19c.2-2.96.48-5.85.56-8.75.1-3.46.06-6.92.05-10.38,0-2.67.32-5.42-.18-8-.61-3.13-.19-6.2-.26-9.29-.04-1.74-.08-3.48-.12-5.26-3.3-.79-6.36-1.41-9.64-.99,0,.79-.06,1.47.04,2.15.21,1.45.44,2.91.48,4.38.19,7.01.22,14.03.33,21.04.06,3.74.13,7.48.28,11.22.02.53.39,1.31.82,1.51,2.4,1.17,4.92,2.04,7.63,2.36ZM156.55,145.86c-1.31.37-2.4.61-3.43,1-.4.15-.88.58-.99.98-.76,2.85-1.43,5.72-2.12,8.59-.09.37-.13.75-.19,1.12-.1,0-.2-.01-.31-.02-.69-2.99.18-6.03-.16-9.12-.36.28-.73.6-.82.98-.29,1.27-.48,2.57-.69,3.86-.78,4.76-1.58,9.51-2.33,14.27-.75,4.77-1.49,9.54-2.16,14.31-.08.53.11,1.4.48,1.62.37.23,1.17-.03,1.68-.27,3.15-1.53,5.28-4.32,7.87-6.54.37-.32.65-.93.69-1.43.29-3.54.47-7.08.75-10.62.26-3.38.6-6.75.91-10.13.26-2.77.53-5.55.83-8.61ZM232.95,184.43c.55-13.4-.31-26.64-2.13-39.84-.31.53-.42,1.07-.39,1.6.3,5.13.77,10.26.89,15.39.14,5.82-.04,11.65-.07,17.48-.01,1.78,0,3.55,0,5.37h1.7ZM141.49,184.35c1.3-8.46,2.57-16.79,3.85-25.12-.38.32-.53.69-.62,1.07-.79,3.46-1.61,6.92-2.35,10.39-.77,3.59-1.46,7.2-2.17,10.8-.41,2.09-.41,2.1,1.29,2.86ZM233.44,143.07c.65,4.7,1.27,9.17,1.89,13.64l.53-.04v-12.86s-2.42-.75-2.42-.75ZM195.22,194.28l-.25-.28-2.79,1.23,1,2.33,2.03-3.29Z"/>
          <path d="M121.57,238.71h-3.09c.94-2.72,2.67-4.84,3.97-7.17,1.32-2.36,2.79-4.64,4.28-7.1-.62,0-1.14.05-1.65-.01-.6-.08-.93-.46-.59-1.06.72-1.26,1.44-2.52,2.24-3.72,1.53-2.29,3.1-4.54,4.68-6.79.21-.3.53-.52.81-.78-.31-.28-.56-.5-.8-.72,1.4-1.8,2.77-3.58,4.16-5.34,1.93-2.43,3.89-4.84,5.82-7.28.2-.25.38-.63.37-.93-.08-1.59-.24-3.18-.33-4.77-.03-.54.07-1.09.35-1.73.5.74,1.11,1.43,1.47,2.24,2.66,5.95,7.55,9.02,13.6,10.53,2.35.59,4.77.89,7.16,1.3.29.05.61-.06,1.1-.12-.46-2.41-.9-4.74-1.34-7.06.14-.12.28-.24.42-.36.18.33.41.64.54.99.7,1.9,1.37,3.8,2.06,5.7.15.41.26.87.54,1.17,1.63,1.75,3.25,3.51,4.99,5.15.52.49,1.42.81,2.14.79,3.94-.1,7.87-.33,11.81-.5,2.19-.09,4.41.01,6.57-.3,1.78-.26,3.51-.94,5.22-1.55,3.24-1.17,4.49-3.97,5.49-6.94.54-1.63,1.02-3.28,1.6-4.9.2-.55.58-1.04.88-1.55.38-.23.38-.04.42.16-.17,1.23-.36,2.45-.52,3.68-.4,3.18-1.24,6.19-3.29,8.75-2.46,3.08-5.69,4.75-9.58,5.01-3.9.26-7.81.44-11.72.5-7.27.12-14.48.72-21.75,2.37.42.63.85,1.26,1.37,2.04-1.21.25-2.32.36-3.35.72-4.05,1.4-8.09,2.81-12.08,4.38-.91.36-1.57,1.36-2.37,2.03-1.21,1.01-2.53,1.89-3.64,3-1.39,1.37-2.81,2.78-3.86,4.4-2.31,3.57-4.39,7.29-6.56,10.94-.36.61-.62,1.31-1.09,1.8-.42.43-1.05.77-1.64.89-.93.2-1.91.21-2.86.26-.21,0-.44-.17-.67-.28.4-.61.74-1.11,1.21-1.81-2.35.15-4.44.28-6.85.43,1.47-2.17,2.84-4.21,4.35-6.43Z"/>
          <path d="M235.77,134.06c2.44-.7,4.89-1.32,7.29-.17.78.38,1.54,1.06,2.01,1.8,1,1.56,1.82,3.25,2.71,4.89-.08.09-.16.18-.24.27-.35-.22-.77-.38-1.05-.67-1.34-1.42-2.61-2.9-3.97-4.3-.36-.37-.9-.67-1.4-.78-1.77-.4-3.57-.7-5.36-1.03Z"/>
        </g>
      </g>
    </g>
  </g>
</svg>