<?xml version="1.0" encoding="UTF-8"?>
<svg xmlns="http://www.w3.org/2000/svg" version="1.1" viewBox="0 0 398.79 246.53">
  <!-- Generator: Adobe Illustrator 28.7.5, SVG Export Plug-In . SVG Version: 1.2.0 Build 176)  -->
  <g>
    <g id="Layer_1">
      <g>
        <g>
          <path d="M40.15,195.9l.44,2.3-12.95-3.25.8,2.93-15.11-4.02.81,2.86-11.5-2.63-2.37-7.33,2.14.26-2.42-6.31,8.05,2.36-.54-2.68,13.42,2.94-7.59-7.96-.53,2.55-11.92-11.68,1.39-6.07,1.92,1.54,1.57-6.34,8.66,9.32.96-2.5,11.33,11.17,6.55-.8-2.15-2.58,8.62-1.12-2.52-2.56,10.94-2.87,5.95,4.71-3.14.78,4.73,5.87-13.63,3.49,1.79,2.54-11.21,3.86,10.88,1.76-.91-2.65,10.78,2.04,3.11,6.62-2.81-.12,2.56,6.33-16.13-2.76Z"/>
          <path d="M55.65,155.69c.59,1.47,1.03,2.72.91,2.83-3.45.51-9.55-.48-13.57-2.28l.19,2.47-1.97-.69c-2.82-1.1-4.11-1.76-11-5.29l.71,2.75c-4.4-1.79-11.36-5.36-16.09-8.29l-1.55-7.33,2.27,1.12-.77-7.33,10.8,6.99v-3.17c3.7,2.21,8.44,5.3,12.78,7.46l-.12-3.45c5.35,2.32,4.17,1.78,5.25,2.2,4.16,1.62,6.77,1.87,7.47.67,2.24-3.76-9.26-8.95-12.38-10.86l-.11,3.05c-3.32-1.99-6.97-3.73-10.32-6.04-.03,1.07.02,2.33.15,2.99l-12.35-7.37-.98-7.8,2.1,1.36-.61-6.96c3.52,2.46,5.8,3.96,6.44,4.29l.12-3.28c3.76,2.24,10.53,5.89,14.17,8.46l.2-2.7c3.54,1.61,9.57,5.59,12.12,7.97l1.25-2.22c6.78,4.81,10.2,10.32,10.6,16.81l2.52-.72c.5,2.67.26,5.28-.63,7.56-1.33,3.42-4.03,5.77-7.59,6.78Z"/>
          <path d="M63.65,122.97l-.25,2.83-9.9-8.31-.35,2.23-9.62-9.08-.65,2.9-9.58-8.52.28-8.2,2.75,1.35.61-5.93,11.94,3.84-.27-2.23,12.24,2.81-10.87-9.18-.49,3.28-9.02-9.18,1.16-7.57,2.05,1.46,1.26-6.71,6.6,7.98,1.01-2.29,8.96,10.12,1.05-2.34,10.27,11.14.52-3.08,9.44,9.57.28,6.92-3.07-1.4.06,5.62-11.07-2.95.85,2.64-14.14-3.37,11.48,7.84.02-3,9.11,6.95.46,6.17-2.49-1.6.11,7.78-10.76-8.48Z"/>
          <path d="M94.37,93.64l.25,2.73c-5.78-1.88-8.02-3.18-11.93-7.42l-1.28,2.61c-3.77-3.97-5.65-7.39-6.77-12.69l-2.67,1.53c-1.98-3.99-3-9.94-2.13-13.8l-2.58.31c-.51-3.92.8-8.82,3.46-12.8l-2.39-.8c1.22-3.79,5.4-9.63,9.29-12.96.66-.56,1.04-.89,1.74-1.29l3.01,5.85,1.42-1.88,4.24,7.74c-1.16.52-2.08,1.11-2.85,1.77-.98.84-1.82,1.75-2.38,2.98l1.82,1.57c-3.1,2.46-4.43,5.01-4.72,8.77l2.42-.93c-.74,5.56-.48,7.42,1.64,11.67l1.31-1.79c1.15,1.67,1.89,2.65,2.59,3.47,1.5,1.75,3.03,3,4.71,3.74l-.17-1.75c3.1.19,5.19-.46,7-2l-1.97-.97c.21-2.64-.1-4.55-.93-5.74l-3.18,4.7-3.32-5.21-1.17,1.85-2.64-5.42,4.46-7.97,1.38,2.61,4.55-7.86c3.45,4.15,6.25,8.87,7.16,12.16l1.16-1.75c2.76,4.56,4.1,8.9,3.56,11.92l2.62-.25c.06,3.73-2.37,8.75-5.56,11.57l1.9,1.78c-4.36,3.44-9.22,4.94-13.08,3.98Z"/>
          <path d="M137.68,69.55l1.13-2.4-6.22-.98c1.83-3.54,3.4-7.74,3.78-10.07l2.54.53c.06-.8.02-1.48-.25-2.15-1.21-3-7.34-5.11-10.75-3.73l.91-3.32c-4.62.47-9.07-2.47-11.04-7.34-.49-1.2-.77-2.1-.87-2.91l2.66.24c-1.45-4.93-1.49-9.26-.11-12.38l2.08,1.49c1.05-5.47,3.33-9.81,7.93-14.78l4.19,5.37,1.43-2.99,4,7.78c-1.49,1.3-3.1,4.82-3.58,8.05l-2.63-1.89c-1.51,2.79-2.09,5.58-1.39,7.32,1.27,3.14,6.44,1.9,9.02,3.11l-1.01,2.5c4.02-.62,9.82,2.79,11.33,6.52.22.54.34,1.03.37,1.48l-1.86.59c1.77,3.79,2.28,9.1.95,12.74l-2.14-.69c0,2.71-1.54,6.37-3.7,8.72l-6.78-.83Z"/>
          <path d="M163.73,55.54c-.97,1.25-1.83,2.26-1.98,2.21-2.18-2.71-4.42-8.48-4.9-12.85l-2.03,1.42-.4-2.05c-.48-2.99-.56-4.43-.99-12.16l-2.01,2c-.68-4.7-1.12-12.51-.99-18.07l5.54-5.04.18,2.52,5.94-4.37-.57,12.85,2.73-1.6c-.04,4.31-.31,9.96.03,14.8l2.91-1.85c.71,5.79.57,4.5.75,5.64.7,4.41,1.81,6.78,3.2,6.78,4.38.03,3.03-12.51,3.11-16.17l-2.69,1.45c.04-3.87-.31-7.9-.01-11.96-.94.51-2,1.19-2.51,1.64l.11-14.38,6.24-4.79-.11,2.5,5.7-4.04c-.34,4.28-.49,7-.44,7.73l2.89-1.55c-.03,4.38.25,12.06-.14,16.5l2.44-1.19c.4,3.87.02,11.08-.75,14.48l2.54-.04c-.72,8.28-3.74,14.01-9.14,17.65l1.89,1.81c-2.05,1.79-4.42,2.89-6.84,3.28-3.63.58-7.02-.56-9.69-3.12Z"/>
          <path d="M196.06,44.53l-2.34.42,2.08-12.78-1.98.52,2.36-11.46-2.64.62c.6-3.57,1.8-10.63,2.33-14.35,2.94-1.82,7.39-3.69,10.69-4.48l.07,2.17c3.05-1.38,6.36-3.4,10.53-3.19l-.98,2.75c1.02-.15,1.96-.23,2.97-.16,3.02.2,5.73,1.76,7.57,4.41l-2.43,1.79c1.21,1.38,2.44,5.65,2.26,8.23-.06.93-.18,1.65-.37,2.21-.71-.19-1.13-.36-1.62-.54-.12,3.96-1.38,7.63-3,9.25l-1.43-1.32c-1.61,2.49-2.77,3.64-4.27,4.48.24.67.97,3.82,1.46,6.23l2.49-1.57,3.84,12.74-3.64,3.72-.8-2.07-3.88,4-2.7-8.19-2.36,1.79-4.29-11.4-.93,8.53,2.45-1.06-.69,10.34-6.57,3.24.08-2.3-6.16,2.55,1.88-15.1ZM211.38,23.76c.97-1.59,1.41-3.8,1.4-5.75l1.83-.45c-.08-2.03-1.89-4.1-3.83-4.23-1.15-.08-3.13.44-4.64,1.35l-.93,7.37,2.34-.49c-.37,2.36-.88,5.57-.95,6.65,1.52-1.12,3.7-2.49,4.77-4.44Z"/>
          <path d="M230.97,58.51l-6.66.32,4.52-10.4-2.57.11,5.99-12.46-2.49.36,5.79-12.29-2.35.4,5.8-13.41,12.4-1.35-1.15,2.52,14.11-.5-2.3,5.86,2.61-.25-2.82,6.69-7.59.44.97-2.42-6.24.96-3.23,8.15,11.02-1.21-2.72,6.57,2.46-.51-2.12,6.29-7.55,1.64.83-2.46-5.59,1.29-2.78,7.6,2.96-.45-3.89,10.28-8.45,1.39,1.02-3.15Z"/>
          <path d="M272.9,64.12l-2.46-.58,9.22-11.52-2.18-.23,8.37-10.35-2.98-.06,8.93-10.16c3.17-.76,8.69-.23,11.85,1.25l-.93,1.54c2.62.08,5.6.93,9.58,2.86l-1.47,1.45,1.34.71c3.97,2.61,4.99,7.34,2.5,11.13-.44.66-.59.9-.81,1.1l2.36,1.12c-2.6,3.55-5.78,6.02-10.42,8.23.28.62.95,1.83,1.11,2.37-2.65,1.27-8.89,1.99-11.49,1.22l.29,2.43c-3.23.46-8.17-.29-11.87-1.87-.81.84-2.97,3.47-4.4,5.12l3.04.62-5.53,7.74-7.09-.88,1.25-2.02-6.65-.5,8.45-10.73ZM298.47,55.01c-.08-.4-.39-1.12-.53-1.81,1.9-.13,3.73-1.08,4.68-2.52.83-1.26.78-2.76-.16-4.07l1.79-.89c-.2-.74-.75-1.35-1.41-1.79-1.26-.83-3.58-1.24-5.46-1.01l-3.77,4.93,2.26.37-4.6,6.2c2.44,1.26,4.72,1.47,7.19.6Z"/>
          <path d="M294.55,91.07l-6.11-3.15,7.02-4.69-1.43-1.12,11.91-7.24-1.94-1.53,11.19-6.63-1.99-1.78,14.09-8.21,8.86,2.13-1.93,2.14,9.62,1.77-1.83,2.24,6.21,2.54-13.89,11.57,2.8,1.17-9.77,7.95,2.19,1.58-10.38,7.95,1.99.97-6.97,6.47-6.11-2.13,1.58-1.88-6.67-2.18,5.75-5.25-2.09-.66,4.73-3.72-4.53-1.78-4.48,3.26,1.22,1.02-4.32,3.31-6.57-2.08,1.83-2.04ZM318.32,82.65l6.87-6.17-1.73-.41,5.24-5.86-10.18,5.2,1.48.76-6.05,4.54,4.38,1.93Z"/>
          <path d="M321.51,106.75l-2.52-1.31,11.47-5.97-1.92-1.18,12.07-5.41-2.43-1.71,11.54-5.59,7.47,3.4-2.3,2.03,5.25,2.83-8.12,9.57,2.16.6-7.28,10.23,12.64-6.53-2.85-1.7,11.93-4.82,6.55,3.97-2.14,1.33,5.72,3.73-9.9,3.04,1.72,1.81-12.78,4.41,1.76,1.87-14.22,5.23,2.65,1.66-12.46,5.06-6.5-2.39,2.47-2.3-5.21-2.09,6.97-9.1-2.77-.22,8.53-11.77-11.64,7.6,2.76,1.16-9.9,5.76-5.88-1.93,2.43-1.69-7.23-2.88,11.95-6.69Z"/>
          <path d="M343.44,139.06l-1.74-2.31,14.2-2.19-1.72-2.02,12.79-1.88-2.24-2,11.85-1.73c4.27,1.95,9.03,6.61,10.85,10.79l-3.21-.09c.92,1.21,1.78,2.91,2.42,4.89,1.11,3.42,1.47,7.32.88,10.39l-2.86-1.8c-1.06,4.43-2.76,6.65-7.91,10.14l-1.96-2.54c-3.1,2.82-7.44,5.29-11.34,6.56-1.37.44-2.72.73-3.97.83l-.5-2.94c-3.77,1.22-9.41.86-13.91-.86l1.41-2.2c-4.41-1.45-7.4-3.2-11.08-6.85l2.86-1.23c-3.43-4.04-5.49-5.26-7.25-10.44l12.43-2.52ZM359.17,151.14l.21,2.05,3.33-.93c2.47-.8,4-1.91,5.29-3.99l2.11,1.59c2.02-1.49,2.85-3.58,2.23-5.49-.38-1.16-1.44-2.33-2.82-3.32l-3.28.38,1.19,1.81-10.03,1.06,1.81,1.84-9.37,1.68c1.76,1.93,5.17,3.09,9.33,3.33Z"/>
          <path d="M342.38,177.45l-2.72-6.32,8.4.83-.39-1.77,13.8,1.97-.53-2.41,12.86,1.99-.41-2.64,16.1,2.61,5.49,7.27-2.85.43,6.31,7.48-2.84.57,3.19,5.91-18.08.12,1.42,2.68-12.59-.06.69,2.61-13.07-.45.92,2.01-9.49.58-3.37-5.53,2.42-.46-3.77-5.92,7.77-.41-1.19-1.84,6.02.13-2.37-4.25-5.53-.32.3,1.56-5.44-.19-3.75-5.78,2.71-.41ZM366.09,186.03l9.22-.4-1.08-1.41,7.77-1.2-11.17-2.44.66,1.53-7.56-.34,2.16,4.27Z"/>
        </g>
        <g id="trace_jav.">
          <path d="M315.58,235.36c-1.47-2.5-2.87-5.04-4.27-7.5.52-.38.99-.73,1.58-1.15-3.63-4.52-7.11-8.87-10.61-13.23,1.15-.6,1.3-1.24.44-2.14-1.71-1.79-3.5-3.51-5.22-5.29-1.15-1.2-2.23-2.47-3.34-3.69.25-.06.69-.16,1.33-.31-2.96-3.13-5.8-6.15-8.75-9.27.77-.22,1.3-.37,1.95-.55-.23-.27-.36-.45-.52-.61-2.51-2.35-5.03-4.68-7.53-7.05-.36-.34-.58-.84-.94-1.37.89-.35,1.52-.6,2.43-.96-.51-.41-.9-.64-1.19-.97-2.75-3-5.47-6.03-8.21-9.04-.48-.53-.95-1.06-1.46-1.55-.83-.77-1.47-1.55-.91-2.8.19-.4.1-.93.12-1.41.07-1.4.13-2.81.19-4.25.87.05,1.52.09,2.49.14-1.18-1.59-2.21-2.9-3.14-4.27-2.48-3.62-4.91-7.28-7.37-10.93-1.88-2.78-3.87-5.49-5.62-8.35-3.26-5.33-6.72-10.49-10.97-15.09l-1.66,1.49c.65.71,1.28,1.46,1.88,2.21,1.96,2.46,3.5,5.24,5.27,7.85,5.14,7.61,10.3,15.21,15.47,22.8.58.85,1.27,1.63,1.96,2.51-.32.11-.55.2-.6.23-.37,2.43-.68,4.62-1.05,6.81-1.12,6.63-4.9,12.06-8.27,17.61-2.3,3.78-5.47,6.97-8.9,9.83-4.71,3.91-9.93,6.98-15.46,9.55-5.56,2.57-11.3,4.11-17.56,4.09-5.22-.03-9.25-.95-13.77-1.12-.59-.02-.98.17-1.24.42-.4.39-.45.92-.45.98,4.4,1.43,8.81,2.87,13.33,4.34-.5.79-.92,1.44-1.2,1.89,4.05,1.44,8.06,2.85,12.07,4.26.21.07.48.04.71-.01,2.91-.67,5.82-1.36,8.74-2.04.34-.08.73-.26,1.05-.19,2.03.45,4.03.37,6.01-.27.23-.08.48-.06.71-.1,1.7-.26,3.39-.53,5.09-.79.9-.14,1.8-.38,2.71-.4,4.23-.1,8.45-.79,12.69-.17.31.05.63-.06.95-.05,1.32.03,2.64.05,3.95.13,3.01.18,5.75,1.39,8.46,2.54,2.03.86,3.91,2.1,5.79,3.28.89.55,1.62,1.36,2.53,2.13.27-.8.51-1.51.63-1.87,3.08,2.71,6.18,5.44,9.22,8.11.08-.18.29-.67.53-1.24,3.04,2.73,5.06,6.07,7.2,9.5.42-.84.74-1.49,1.2-2.42,2,3.77,3.84,7.25,5.79,10.92,1-2.27,1.91-4.32,2.9-6.54.57.79,1,1.38,1.56,2.15.54-1.48.92-2.78,1.49-3.99.47-1.03.35-1.85-.21-2.79Z"/>
          <path d="M245.9,123.54c-.65-.7-1.34-1.38-1.96-2.1-.22-.25-.44-.61-.45-.92-.04-1.75-.02-3.5-.02-5.27.39.05.87.12,1.8.25-.91-2.38-1.73-4.48-2.55-6.61.23-.13.59-.34.96-.55-1.43-2.27-3.28-3.92-5.64-5.01.24-.5.44-.91.64-1.35-2.86-1.59-5.84-2.23-9.05-1.89-.06-.64-.11-1.18-.16-1.73-2.48-.17-4.81-.15-6.73,1.74-.27-.61-.48-1.08-.84-1.87-.57.69-1.04,1.25-1.54,1.85-.75-.43-1.48-.82-2.19-1.27-2.26-1.42-4.42-3.03-6.78-4.26-3.04-1.58-6.17-3.02-9.37-4.22-3.11-1.16-6.34-2.36-9.7-.65-.08.04-.22-.04-.36-.07.04-.4.08-.78.13-1.27-4.97.09-8.59,2.57-11.68,6-5.3-2.13-10.64-3.71-16.18-4.57-3.68-.57-7.27-2.05-11.09-.87-.33.1-.72-.04-1.08-.01-1.26.11-2.54.17-3.79.38-2.89.47-5.67,1.32-8.29,2.63s-5.5,2.74-8.12,4.32c-1.17.7-2.04,1.9-3.04,2.88.07.09.14.19.22.29.5-.04,1.01-.07,1.59-.11-2.99,6.61-4.15,8.53-3.72,13.8.17,2.16.23,4.34,1.49,6.22,4.76,7.09,11.25,12.14,18.82,15.92,1.22.61,1.32.82.76,2.06-.49,1.06-.88,2.16-1.32,3.24.1.04.2.09.3.13,3.94-5.56,7.89-11.12,11.82-16.66-.33-.02-.83-.05-1.33-.07-.02-.11-.03-.21-.04-.31,1.41-.37,2.8-.95,4.24-1.06,2.22-.18,4.47-.05,6.7-.04,2.12.01,4.29-.28,6.34.12,3.21.62,6.36.01,9.54.08,1.67.03,3.37.16,5.02-.06,4.34-.57,8.66-1.34,13-1.98,6.21-.91,12.33-2.19,18.4-3.76,1.03-.27,2.07-.43,3.14-.65.1-.22.24-.54.43-.95,1.86,1.01,3.66,1.98,5.5,2.98.07-.44.13-.76.2-1.17,2.27,1.22,4.44,2.38,6.63,3.55.11-.32.19-.53.28-.8.22.09.4.17.57.24,2.8,1.12,5.04,2.97,7,5.1l1.66-1.49c-.05-.06-.11-.12-.16-.18ZM195.98,102.31c-4.36-2.24-8.52-4.37-12.8-6.56,1.8-2.31,3.29-4.58,6.48-4.58-.05.51-.08.92-.12,1.4,1.71-.49,3.38-.85,4.96-1.44,1.41-.53,2.54-.04,3.83.56-1.11,3.44-2.65,6.72-2.35,10.62ZM218.61,104.47c-.2.44-.21.96-.32,1.54-.45-.35-.78-.61-1.29-1.01-.48,2.54-.13,4.84.66,7.53-6.55-3.1-12.78-6.05-19.02-9-.32-3.83.73-7.2,2.75-10.29.17-.27.87-.43,1.2-.31,3.81,1.47,7.47,3.23,10.73,5.74,1.46,1.11,2.92,2.23,4.41,3.3.9.65,1.4,1.35.88,2.5Z"/>
          <path d="M161.32,170.81c4.41-.82,8.62.04,12.81,1.11,2.19.56,4.38.23,6.52-.27,1.62-.38,3.17-1.04,4.79-1.45,2.5-.64,5.02-1.28,7.56-1.7,1.14-.19,2.4.03,3.55.28.51.11,1.17.71,1.27,1.19.09.45-.35,1.22-.78,1.51-3.65,2.47-7.37,4.83-11.02,7.3-1.11.75-2.72,2.22-3.64,3.2-1.43,1.51-3.01,2.56-5.22,2.46-.23-.01-.47.08-.93.16.27,2.96.54,5.92.82,8.99,2.42.66,4.92.7,7.43.54,2.82-.18,5.48-.94,8.05-2.17,3.55-1.69,5.61-4.64,7.6-8.31.89-1.63,2.11-3.22,2.94-4.73.25-.46.32-1,.46-1.62-1.11.03-2.1,1.18-3.04-.32,1.25-.47,2.4-.9,3.46-1.29.11-.04.38.02.5.23.65,1.12.59,3.14,2.11,5.3.51.72,1.31,1.47,1.35,1.51.59.55.95.76,1.55,1.4.36.39,1,1.18.94,1.33-.08.18-1.72-.48-2.44-1.02-.9-.67-1.69-1.24-2.2-1.61-.05-.04-.11-.02-.13.04-1.03,2.1-2.09,4.1-2.98,6.16-1.06,2.45-1.74,5.09-3.01,7.41-2.34,4.27-6.14,6.26-11.04,5.88-4.53-.35-9.01.18-13.51.54-.92.07-1.86.27-2.74.13-.53-.09-.98-.73-1.61-1.24,1.66-.85,3.22-1.37,4.91-1.37,4.35,0,8.71.07,13.06.06,1.44,0,2.89-.13,4.41-.22.13,0,.23-.12.22-.24-.08-.99-.18-2.02-.18-2.28,0-.13.22-.26.32-.08.17.55.34,1.1.58,1.88.04.11.17.16.27.09.72-.52,1.51-.76,1.97-1.73.39-.81-.34-2.82-.1-2.93.11-.05.43.21,1.38,1.76.67-1.55,1.4-2.99,1.91-4.5,1.23-3.58,2.17-7.27,4.36-10.47.32-.46.21-1.5.25-1.87,0-.09-.36-.22-.41-.12-.37.66-1.48,2.66-2.19,4-.69,1.31-1.36,2.63-1.99,3.96-.82,1.75-2.26,2.95-3.6,4.26-.61.6-1.07,1.38-1.51,2.13-.42.72-.62,1.6-1.13,2.24-.43.54-1.12.99-1.78,1.2-.72.23-1.55.18-2.37.23-.02.15-.05.37-.07.65-.03.4-.01.64-.07.65-.05,0-.11-.15-.24-.4-.14-.27-.27-.48-.37-.63-.87.12-1.76.25-2.65.38-.1.45-.19.85-.27,1.25-.04.11-.03.13-.11.15-.07.01-.13,0-.17-.11-.15-.4-.29-.8-.55-1.52h-11.68c0-.15,0-.31,0-.46,3.89,0,11.49.04,11.75,0-.02-.33-.01-1.05,0-1.1.03-.03.13-.12.26-.12.13.03.39.51.72,1.2,1.59-.19,3.28-.4,5.05-.61-.21-1-.39-1.84-.59-2.78-1.49.29-2.95.72-4.43.82-2.22.16-4.47.27-6.67.06-2.47-.23-3.54-1.59-3.69-4.09-.11-1.83-.11-3.68-.32-5.5-.05-.44-.73-1.12-1.16-1.15-2.03-.12-3.37-1.34-4.56-2.73-.98-1.15-1.71-2.51-2.62-3.72-1.55-2.08-3.55-3.65-5.85-5.08-1.34,3.86-2.48,7.62-1.81,11.65.1.62.4,1.19.8,1.67,1.84,2.22,3.69,4.45,5.69,6.52.59.61,1.69.9,2.6.98,1.82.16,3.67.07,5.5.09.27,0,.53.03.81.17-2.21,1.11-4.58,1.19-7.15,1.26.39.34,1.95,2.33,2.39,2.41.63.11,1.09-2.47,1.26-2.46.1,0-.04,2.23-.24,2.72-.29.71-.98.89-1.58.42-.87-.69-1.68-1.47-2.46-2.26-1.58-1.62-3.13-3.27-4.92-5.16.82,2.25,1.18,4.26,3.29,5.45,1.68.95,3.04,2.59,4.55,3.83.27.22.63.61.59.78-.16.05-.82.02-1.05-.18-2.36-2.03-4.82-3.98-6.94-6.24-.83-.89-.82-2.53-1.28-3.8-.26-.72-.62-1.44-1.08-2.05-.83-1.12-1.78-2.15-2.65-3.24-.66-.82-.8-1.74-.68-2.81.2-1.89.24-3.79.36-5.83-1.12.95-2.16,1.74-3.09,2.64-3.08,3-6.87,4.92-10.57,6.97-1.37.76-3.06.78-4.46-.16-1.72-1.15-3.01-2.71-4.09-4.51-.88-1.47-1.1-3.23-.73-4.9,1.64-7.29,3.12-14.61,4.73-21.91.56-2.53,1.25-5.04,2.05-7.51.22-.67.98-1.23,1.6-1.7,3.38-2.58,7.4-3.6,11.42-4.63,1.58-.4,3.12-1.01,4.71-1.34,1.9-.41,3.85-.61,5.77-.93,2.34-.39,4.68-.82,7.03-1.2,1.29-.21,3.42-.43,4.72-.52,4.51-.32,9.02-.75,13.53-.93,6.1-.25,12.21-.41,18.32-.44,4.63-.02,9.26-.26,13.88.57,1.62.29,3.34-.03,5,.1,2.46.2,4.91.51,7.35.88,1.92.29,3.82.72,5.71,1.17.46.11,1.03.44,1.24.83,1.25,2.31,2.57,4.6,3.58,7.02,1.86,4.45,3.41,9.04,5.33,13.46.87,2.01.47,3.87.02,5.71-1.02,4.18-2.25,8.31-3.48,12.44-.25.82-.69,1.56-1.27,2.18-3.55,3.77-7.61,6.57-12.92,7.31-2.25.31-4.4.04-6.47-.56-4.99-1.46-9.6-3.58-13.28-7.49-5.42-5.76-11.07-11.31-16.45-17.12-2.45-2.64-5.3-4.02-8.79-4.23-2.99-.18-5.98-.31-8.97-.3-1.42,0-2.85.34-4.26.58-.42.07-.89.24-1.2.51-4.03,3.58-7.93,7.29-11.25,11.56-.07.09-.08.21-.15.4ZM228.21,182.76c.2-2.96.48-5.85.56-8.75.1-3.46.06-6.92.05-10.38,0-2.67.32-5.42-.18-8-.61-3.13-.19-6.2-.26-9.29-.04-1.74-.08-3.48-.12-5.26-3.3-.79-6.36-1.41-9.64-.99,0,.79-.06,1.47.04,2.15.21,1.45.44,2.91.48,4.38.19,7.01.22,14.03.33,21.04.06,3.74.13,7.48.28,11.22.02.53.39,1.31.82,1.51,2.4,1.17,4.92,2.04,7.63,2.36ZM155.45,144.42c-1.31.37-2.4.61-3.43,1-.4.15-.88.58-.99.98-.76,2.85-1.43,5.72-2.12,8.59-.09.37-.13.75-.19,1.12-.1,0-.2-.01-.31-.02-.69-2.99.18-6.03-.16-9.12-.36.28-.73.6-.82.98-.29,1.27-.48,2.57-.69,3.86-.78,4.76-1.58,9.51-2.33,14.27-.75,4.77-1.49,9.54-2.16,14.31-.08.53.11,1.4.48,1.62.37.23,1.17-.03,1.68-.27,3.15-1.53,5.28-4.32,7.87-6.54.37-.32.65-.93.69-1.43.29-3.54.47-7.08.75-10.62.26-3.38.6-6.75.91-10.13.26-2.77.53-5.55.83-8.61ZM231.85,182.99c.55-13.4-.31-26.64-2.13-39.84-.31.53-.42,1.07-.39,1.6.3,5.13.77,10.26.89,15.39.14,5.82-.04,11.65-.07,17.48-.01,1.78,0,3.55,0,5.37h1.7ZM140.39,182.91c1.3-8.46,2.57-16.79,3.85-25.12-.38.32-.53.69-.62,1.07-.79,3.46-1.61,6.92-2.35,10.39-.77,3.59-1.46,7.2-2.17,10.8-.41,2.09-.41,2.1,1.29,2.86ZM232.34,141.63c.65,4.7,1.27,9.17,1.89,13.64l.53-.04v-12.86s-2.42-.75-2.42-.75ZM194.11,192.84l-.25-.28-2.79,1.23,1,2.33,2.03-3.29Z"/>
          <path d="M120.47,237.27h-3.09c.94-2.72,2.67-4.84,3.97-7.17,1.32-2.36,2.79-4.64,4.28-7.1-.62,0-1.14.05-1.65-.01-.6-.08-.93-.46-.59-1.06.72-1.26,1.44-2.52,2.24-3.72,1.53-2.29,3.1-4.54,4.68-6.79.21-.3.53-.52.81-.78-.31-.28-.56-.5-.8-.72,1.4-1.8,2.77-3.58,4.16-5.34,1.93-2.43,3.89-4.84,5.82-7.28.2-.25.38-.63.37-.93-.08-1.59-.24-3.18-.33-4.77-.03-.54.07-1.09.35-1.73.5.74,1.11,1.43,1.47,2.24,2.66,5.95,7.55,9.02,13.6,10.53,2.35.59,4.77.89,7.16,1.3.29.05.61-.06,1.1-.12-.46-2.41-.9-4.74-1.34-7.06.14-.12.28-.24.42-.36.18.33.41.64.54.99.7,1.9,1.37,3.8,2.06,5.7.15.41.26.87.54,1.17,1.63,1.75,3.25,3.51,4.99,5.15.52.49,1.42.81,2.14.79,3.94-.1,7.87-.33,11.81-.5,2.19-.09,4.41.01,6.57-.3,1.78-.26,3.51-.94,5.22-1.55,3.24-1.17,4.49-3.97,5.49-6.94.54-1.63,1.02-3.28,1.6-4.9.2-.55.58-1.04.88-1.55.38-.23.38-.04.42.16-.17,1.23-.36,2.45-.52,3.68-.4,3.18-1.24,6.19-3.29,8.75-2.46,3.08-5.69,4.75-9.58,5.01-3.9.26-7.81.44-11.72.5-7.27.12-14.48.72-21.75,2.37.42.63.85,1.26,1.37,2.04-1.21.25-2.32.36-3.35.72-4.05,1.4-8.09,2.81-12.08,4.38-.91.36-1.57,1.36-2.37,2.03-1.21,1.01-2.53,1.89-3.64,3-1.39,1.37-2.81,2.78-3.86,4.4-2.31,3.57-4.39,7.29-6.56,10.94-.36.61-.62,1.31-1.09,1.8-.42.43-1.05.77-1.64.89-.93.2-1.91.21-2.86.26-.21,0-.44-.17-.67-.28.4-.61.74-1.11,1.21-1.81-2.35.15-4.44.28-6.85.43,1.47-2.17,2.84-4.21,4.35-6.43Z"/>
          <path d="M234.67,132.62c2.44-.7,4.89-1.32,7.29-.17.78.38,1.54,1.06,2.01,1.8,1,1.56,1.82,3.25,2.71,4.89-.08.09-.16.18-.24.27-.35-.22-.77-.38-1.05-.67-1.34-1.42-2.61-2.9-3.97-4.3-.36-.37-.9-.67-1.4-.78-1.77-.4-3.57-.7-5.36-1.03Z"/>
        </g>
      </g>
    </g>
  </g>
</svg>