<?xml version="1.0" encoding="UTF-8"?>
<svg xmlns="http://www.w3.org/2000/svg" version="1.1" viewBox="0 0 199.96 158.19">
  <!-- Generator: Adobe Illustrator 28.7.5, SVG Export Plug-In . SVG Version: 1.2.0 Build 176)  -->
  <g>
    <g id="Layer_1">
      <g id="trace_jav.">
        <path d="M199.46,147.02c-1.47-2.5-2.87-5.04-4.27-7.5.52-.38.99-.73,1.58-1.15-3.63-4.52-7.11-8.87-10.61-13.23,1.15-.6,1.3-1.24.44-2.14-1.71-1.79-3.5-3.51-5.22-5.29-1.15-1.2-2.23-2.47-3.34-3.69.25-.06.69-.16,1.33-.31-2.96-3.13-5.8-6.15-8.75-9.27.77-.22,1.3-.37,1.95-.55-.23-.27-.36-.45-.52-.61-2.51-2.35-5.03-4.68-7.53-7.05-.36-.34-.58-.84-.94-1.37.89-.35,1.52-.6,2.43-.96-.51-.41-.9-.64-1.19-.97-2.75-3-5.47-6.03-8.21-9.04-.48-.53-.95-1.06-1.46-1.55-.83-.77-1.47-1.55-.91-2.8.19-.4.1-.93.12-1.41.07-1.4.13-2.81.19-4.25.87.05,1.52.09,2.49.14-1.18-1.59-2.21-2.9-3.14-4.27-2.48-3.62-4.91-7.28-7.37-10.93-1.88-2.78-3.87-5.49-5.62-8.35-3.26-5.33-6.72-10.49-10.97-15.09l-1.66,1.49c.65.71,1.28,1.46,1.88,2.21,1.96,2.46,3.5,5.24,5.27,7.85,5.14,7.61,10.3,15.21,15.47,22.8.58.85,1.27,1.63,1.96,2.51-.32.11-.55.2-.6.23-.37,2.43-.68,4.62-1.05,6.81-1.12,6.63-4.9,12.06-8.27,17.61-2.3,3.78-5.47,6.97-8.9,9.83-4.71,3.91-9.93,6.98-15.46,9.55-5.56,2.57-11.3,4.11-17.56,4.09-5.22-.03-9.25-.95-13.77-1.12-.59-.02-.98.17-1.24.42-.4.39-.45.92-.45.98,4.4,1.43,8.81,2.87,13.33,4.34-.5.79-.92,1.44-1.2,1.89,4.05,1.44,8.06,2.85,12.07,4.26.21.07.48.04.71-.01,2.91-.67,5.82-1.36,8.74-2.04.34-.08.73-.26,1.05-.19,2.03.45,4.03.37,6.01-.27.23-.08.48-.06.71-.1,1.7-.26,3.39-.53,5.09-.79.9-.14,1.8-.38,2.71-.4,4.23-.1,8.45-.79,12.69-.17.31.05.63-.06.95-.05,1.32.03,2.64.05,3.95.13,3.01.18,5.75,1.39,8.46,2.54,2.03.86,3.91,2.1,5.79,3.28.89.55,1.62,1.36,2.53,2.13.27-.8.51-1.51.63-1.87,3.08,2.71,6.18,5.44,9.22,8.11.08-.18.29-.67.53-1.24,3.04,2.73,5.06,6.07,7.2,9.5.42-.84.74-1.49,1.2-2.42,2,3.77,3.84,7.25,5.79,10.92,1-2.27,1.91-4.32,2.9-6.54.57.79,1,1.38,1.56,2.15.54-1.48.92-2.78,1.49-3.99.47-1.03.35-1.85-.21-2.79Z"/>
        <path d="M129.78,35.2c-.65-.7-1.34-1.38-1.96-2.1-.22-.25-.44-.61-.45-.92-.04-1.75-.02-3.5-.02-5.27.39.05.87.12,1.8.25-.91-2.38-1.73-4.48-2.55-6.61.23-.13.59-.34.96-.55-1.43-2.27-3.28-3.92-5.64-5.01.24-.5.44-.91.64-1.35-2.86-1.59-5.84-2.23-9.05-1.89-.06-.64-.11-1.18-.16-1.73-2.48-.17-4.81-.15-6.73,1.74-.27-.61-.48-1.08-.84-1.87-.57.69-1.04,1.25-1.54,1.85-.75-.43-1.48-.82-2.19-1.27-2.26-1.42-4.42-3.03-6.78-4.26-3.04-1.58-6.17-3.02-9.37-4.22-3.11-1.16-6.34-2.36-9.7-.65-.08.04-.22-.04-.36-.07.04-.4.08-.78.13-1.27-4.97.09-8.59,2.57-11.68,6-5.3-2.13-10.64-3.71-16.18-4.57-3.68-.57-7.27-2.05-11.09-.87-.33.1-.72-.04-1.08-.01-1.26.11-2.54.17-3.79.38-2.89.47-5.67,1.32-8.29,2.63s-5.5,2.74-8.12,4.32c-1.17.7-2.04,1.9-3.04,2.88.07.09.14.19.22.29.5-.04,1.01-.07,1.59-.11-2.99,6.61-4.15,8.53-3.72,13.8.17,2.16.23,4.34,1.49,6.22,4.76,7.09,11.25,12.14,18.82,15.92,1.22.61,1.32.82.76,2.06-.49,1.06-.88,2.16-1.32,3.24.1.04.2.09.3.13,3.94-5.56,7.89-11.12,11.82-16.66-.33-.02-.83-.05-1.33-.07-.02-.11-.03-.21-.04-.31,1.41-.37,2.8-.95,4.24-1.06,2.22-.18,4.47-.05,6.7-.04,2.12.01,4.29-.28,6.34.12,3.21.62,6.36.01,9.54.08,1.67.03,3.37.16,5.02-.06,4.34-.57,8.66-1.34,13-1.98,6.21-.91,12.33-2.19,18.4-3.76,1.03-.27,2.07-.43,3.14-.65.1-.22.24-.54.43-.95,1.86,1.01,3.66,1.98,5.5,2.98.07-.44.13-.76.2-1.17,2.27,1.22,4.44,2.38,6.63,3.55.11-.32.19-.53.28-.8.22.09.4.17.57.24,2.8,1.12,5.04,2.97,7,5.1l1.66-1.49c-.05-.06-.11-.12-.16-.18ZM79.86,13.97c-4.36-2.24-8.52-4.37-12.8-6.56,1.8-2.31,3.29-4.58,6.48-4.58-.05.51-.08.92-.12,1.4,1.71-.49,3.38-.85,4.96-1.44,1.41-.53,2.54-.04,3.83.56-1.11,3.44-2.65,6.72-2.35,10.62ZM102.49,16.13c-.2.44-.21.96-.32,1.54-.45-.35-.78-.61-1.29-1.01-.48,2.54-.13,4.84.66,7.53-6.55-3.1-12.78-6.05-19.02-9-.32-3.83.73-7.2,2.75-10.29.17-.27.87-.43,1.2-.31,3.81,1.47,7.47,3.23,10.73,5.74,1.46,1.11,2.92,2.23,4.41,3.3.9.65,1.4,1.35.88,2.5Z"/>
        <path d="M45.2,82.48c4.41-.82,8.62.04,12.81,1.11,2.19.56,4.38.23,6.52-.27,1.62-.38,3.17-1.04,4.79-1.45,2.5-.64,5.02-1.28,7.56-1.7,1.14-.19,2.4.03,3.55.28.51.11,1.17.71,1.27,1.19.09.45-.35,1.22-.78,1.51-3.65,2.47-7.37,4.83-11.02,7.3-1.11.75-2.72,2.22-3.64,3.2-1.43,1.51-3.01,2.56-5.22,2.46-.23-.01-.47.08-.93.16.27,2.96.54,5.92.82,8.99,2.42.66,4.92.7,7.43.54,2.82-.18,5.48-.94,8.05-2.17,3.55-1.69,5.61-4.64,7.6-8.31.89-1.63,2.11-3.22,2.94-4.73.25-.46.32-1,.46-1.62-1.11.03-2.1,1.18-3.04-.32,1.25-.47,2.4-.9,3.46-1.29.11-.04.38.02.5.23.65,1.12.59,3.14,2.11,5.3.51.72,1.31,1.47,1.35,1.51.59.55.95.76,1.55,1.4.36.39,1,1.18.94,1.33-.08.18-1.72-.48-2.44-1.02-.9-.67-1.69-1.24-2.2-1.61-.05-.04-.11-.02-.13.04-1.03,2.1-2.09,4.1-2.98,6.16-1.06,2.45-1.74,5.09-3.01,7.41-2.34,4.27-6.14,6.26-11.04,5.88-4.53-.35-9.01.18-13.51.54-.92.07-1.86.27-2.74.13-.53-.09-.98-.73-1.61-1.24,1.66-.85,3.22-1.37,4.91-1.37,4.35,0,8.71.07,13.06.06,1.44,0,2.89-.13,4.41-.22.13,0,.23-.12.22-.24-.08-.99-.18-2.02-.18-2.28,0-.13.22-.26.32-.08.17.55.34,1.1.58,1.88.04.11.17.16.27.09.72-.52,1.51-.76,1.97-1.73.39-.81-.34-2.82-.1-2.93.11-.05.43.21,1.38,1.76.67-1.55,1.4-2.99,1.91-4.5,1.23-3.58,2.17-7.27,4.36-10.47.32-.46.21-1.5.25-1.87,0-.09-.36-.22-.41-.12-.37.66-1.48,2.66-2.19,4-.69,1.31-1.36,2.63-1.99,3.96-.82,1.75-2.26,2.95-3.6,4.26-.61.6-1.07,1.38-1.51,2.13-.42.72-.62,1.6-1.13,2.24-.43.54-1.12.99-1.78,1.2-.72.23-1.55.18-2.37.23-.02.15-.05.37-.07.65-.03.4-.01.64-.07.65-.05,0-.11-.15-.24-.4-.14-.27-.27-.48-.37-.63-.87.12-1.76.25-2.65.38-.1.45-.19.85-.27,1.25-.04.11-.03.13-.11.15-.07.01-.13,0-.17-.11-.15-.4-.29-.8-.55-1.52h-11.68c0-.15,0-.31,0-.46,3.89,0,11.49.04,11.75,0-.02-.33-.01-1.05,0-1.1.03-.03.13-.12.26-.12.13.03.39.51.72,1.2,1.59-.19,3.28-.4,5.05-.61-.21-1-.39-1.84-.59-2.78-1.49.29-2.95.72-4.43.82-2.22.16-4.47.27-6.67.06-2.47-.23-3.54-1.59-3.69-4.09-.11-1.83-.11-3.68-.32-5.5-.05-.44-.73-1.12-1.16-1.15-2.03-.12-3.37-1.34-4.56-2.73-.98-1.15-1.71-2.51-2.62-3.72-1.55-2.08-3.55-3.65-5.85-5.08-1.34,3.86-2.48,7.62-1.81,11.65.1.62.4,1.19.8,1.67,1.84,2.22,3.69,4.45,5.69,6.52.59.61,1.69.9,2.6.98,1.82.16,3.67.07,5.5.09.27,0,.53.03.81.17-2.21,1.11-4.58,1.19-7.15,1.26.39.34,1.95,2.33,2.39,2.41.63.11,1.09-2.47,1.26-2.46.1,0-.04,2.23-.24,2.72-.29.71-.98.89-1.58.42-.87-.69-1.68-1.47-2.46-2.26-1.58-1.62-3.13-3.27-4.92-5.16.82,2.25,1.18,4.26,3.29,5.45,1.68.95,3.04,2.59,4.55,3.83.27.22.63.61.59.78-.16.05-.82.02-1.05-.18-2.36-2.03-4.82-3.98-6.94-6.24-.83-.89-.82-2.53-1.28-3.8-.26-.72-.62-1.44-1.08-2.05-.83-1.12-1.78-2.15-2.65-3.24-.66-.82-.8-1.74-.68-2.81.2-1.89.24-3.79.36-5.83-1.12.95-2.16,1.74-3.09,2.64-3.08,3-6.87,4.92-10.57,6.97-1.37.76-3.06.78-4.46-.16-1.72-1.15-3.01-2.71-4.09-4.51-.88-1.47-1.1-3.23-.73-4.9,1.64-7.29,3.12-14.61,4.73-21.91.56-2.53,1.25-5.04,2.05-7.51.22-.67.98-1.23,1.6-1.7,3.38-2.58,7.4-3.6,11.42-4.63,1.58-.4,3.12-1.01,4.71-1.34,1.9-.41,3.85-.61,5.77-.93,2.34-.39,4.68-.82,7.03-1.2,1.29-.21,3.42-.43,4.72-.52,4.51-.32,9.02-.75,13.53-.93,6.1-.25,12.21-.41,18.32-.44,4.63-.02,9.26-.26,13.88.57,1.62.29,3.34-.03,5,.1,2.46.2,4.91.51,7.35.88,1.92.29,3.82.72,5.71,1.17.46.11,1.03.44,1.24.83,1.25,2.31,2.57,4.6,3.58,7.02,1.86,4.45,3.41,9.04,5.33,13.46.87,2.01.47,3.87.02,5.71-1.02,4.18-2.25,8.31-3.48,12.44-.25.82-.69,1.56-1.27,2.18-3.55,3.77-7.61,6.57-12.92,7.31-2.25.31-4.4.04-6.47-.56-4.99-1.46-9.6-3.58-13.28-7.49-5.42-5.76-11.07-11.31-16.45-17.12-2.45-2.64-5.3-4.02-8.79-4.23-2.99-.18-5.98-.31-8.97-.3-1.42,0-2.85.34-4.26.58-.42.07-.89.24-1.2.51-4.03,3.58-7.93,7.29-11.25,11.56-.07.09-.08.21-.15.4ZM112.09,94.42c.2-2.96.48-5.85.56-8.75.1-3.46.06-6.92.05-10.38,0-2.67.32-5.42-.18-8-.61-3.13-.19-6.2-.26-9.29-.04-1.74-.08-3.48-.12-5.26-3.3-.79-6.36-1.41-9.64-.99,0,.79-.06,1.47.04,2.15.21,1.45.44,2.91.48,4.38.19,7.01.22,14.03.33,21.04.06,3.74.13,7.48.28,11.22.02.53.39,1.31.82,1.51,2.4,1.17,4.92,2.04,7.63,2.36ZM39.33,56.08c-1.31.37-2.4.61-3.43,1-.4.15-.88.58-.99.98-.76,2.85-1.43,5.72-2.12,8.59-.09.37-.13.75-.19,1.12-.1,0-.2-.01-.31-.02-.69-2.99.18-6.03-.16-9.12-.36.28-.73.6-.82.98-.29,1.27-.48,2.57-.69,3.86-.78,4.76-1.58,9.51-2.33,14.27-.75,4.77-1.49,9.54-2.16,14.31-.08.53.11,1.4.48,1.62.37.23,1.17-.03,1.68-.27,3.15-1.53,5.28-4.32,7.87-6.54.37-.32.65-.93.69-1.43.29-3.54.47-7.08.75-10.62.26-3.38.6-6.75.91-10.13.26-2.77.53-5.55.83-8.61ZM115.73,94.65c.55-13.4-.31-26.64-2.13-39.84-.31.53-.42,1.07-.39,1.6.3,5.13.77,10.26.89,15.39.14,5.82-.04,11.65-.07,17.48-.01,1.78,0,3.55,0,5.37h1.7ZM24.27,94.57c1.3-8.46,2.57-16.79,3.85-25.12-.38.32-.53.69-.62,1.07-.79,3.46-1.61,6.92-2.35,10.39-.77,3.59-1.46,7.2-2.17,10.8-.41,2.09-.41,2.1,1.29,2.86ZM116.22,53.29c.65,4.7,1.27,9.17,1.89,13.64l.53-.04v-12.86s-2.42-.75-2.42-.75ZM77.99,104.5l-.25-.28-2.79,1.23,1,2.33,2.03-3.29Z"/>
        <path d="M4.35,148.93H1.25c.94-2.72,2.67-4.84,3.97-7.17,1.32-2.36,2.79-4.64,4.28-7.1-.62,0-1.14.05-1.65-.01-.6-.08-.93-.46-.59-1.06.72-1.26,1.44-2.52,2.24-3.72,1.53-2.29,3.1-4.54,4.68-6.79.21-.3.53-.52.81-.78-.31-.28-.56-.5-.8-.72,1.4-1.8,2.77-3.58,4.16-5.34,1.93-2.43,3.89-4.84,5.82-7.28.2-.25.38-.63.37-.93-.08-1.59-.24-3.18-.33-4.77-.03-.54.07-1.09.35-1.73.5.74,1.11,1.43,1.47,2.24,2.66,5.95,7.55,9.02,13.6,10.53,2.35.59,4.77.89,7.16,1.3.29.05.61-.06,1.1-.12-.46-2.41-.9-4.74-1.34-7.06.14-.12.28-.24.42-.36.18.33.41.64.54.99.7,1.9,1.37,3.8,2.06,5.7.15.41.26.87.54,1.17,1.63,1.75,3.25,3.51,4.99,5.15.52.49,1.42.81,2.14.79,3.94-.1,7.87-.33,11.81-.5,2.19-.09,4.41.01,6.57-.3,1.78-.26,3.51-.94,5.22-1.55,3.24-1.17,4.49-3.97,5.49-6.94.54-1.63,1.02-3.28,1.6-4.9.2-.55.58-1.04.88-1.55.38-.23.38-.04.42.16-.17,1.23-.36,2.45-.52,3.68-.4,3.18-1.24,6.19-3.29,8.75-2.46,3.08-5.69,4.75-9.58,5.01-3.9.26-7.81.44-11.72.5-7.27.12-14.48.72-21.75,2.37.42.63.85,1.26,1.37,2.04-1.21.25-2.32.36-3.35.72-4.05,1.4-8.09,2.81-12.08,4.38-.91.36-1.57,1.36-2.37,2.03-1.21,1.01-2.53,1.89-3.64,3-1.39,1.37-2.81,2.78-3.86,4.4-2.31,3.57-4.39,7.29-6.56,10.94-.36.61-.62,1.31-1.09,1.8-.42.43-1.05.77-1.64.89-.93.2-1.91.21-2.86.26-.21,0-.44-.17-.67-.28.4-.61.74-1.11,1.21-1.81-2.35.15-4.44.28-6.85.43,1.47-2.17,2.84-4.21,4.35-6.43Z"/>
        <path d="M118.54,44.28c2.44-.7,4.89-1.32,7.29-.17.78.38,1.54,1.06,2.01,1.8,1,1.56,1.82,3.25,2.71,4.89-.08.09-.16.18-.24.27-.35-.22-.77-.38-1.05-.67-1.34-1.42-2.61-2.9-3.97-4.3-.36-.37-.9-.67-1.4-.78-1.77-.4-3.57-.7-5.36-1.03Z"/>
      </g>
    </g>
  </g>
</svg>